<svg width="320" height="80" viewBox="0 0 320 80" fill="none" xmlns="http://www.w3.org/2000/svg">
<rect width="320" height="80" fill="white"/>
<g transform="translate(40, 22)">
<path d="M197.44 14.9458C197.44 14.0278 197.152 11.6878 192.706 11.6878H182.176V23.9998H192.958C196.36 23.9998 197.764 22.6138 197.764 20.6698C197.764 19.2658 197.026 18.2038 195.334 17.7178C196.594 17.3218 197.44 16.4938 197.44 14.9458ZM193.048 18.7978C194.74 18.7978 195.226 19.6438 195.226 20.3278C195.226 21.0118 194.74 21.6958 193.228 21.6958H184.66V18.7978H193.048ZM184.66 16.6018V13.9558H193.048C194.362 13.9558 194.938 14.5138 194.938 15.3058C194.938 16.1518 194.272 16.6018 192.868 16.6018H184.66Z" fill="#222222"/>
<path d="M212.774 11.5078C206.906 11.5078 204.134 13.0738 204.134 17.8438C204.134 22.6138 206.906 24.1798 212.774 24.1798C218.642 24.1798 221.414 22.6138 221.414 17.8438C221.414 13.0738 218.642 11.5078 212.774 11.5078ZM212.774 21.7498C208.742 21.7498 206.762 21.2818 206.762 17.8438C206.762 14.4058 208.742 13.9378 212.774 13.9378C216.806 13.9378 218.786 14.4058 218.786 17.8438C218.786 21.2818 216.806 21.7498 212.774 21.7498Z" fill="#222222"/>
<path d="M235.561 23.9998V14.0098H241.681V11.6878H226.867V14.0098H232.987V23.9998H235.561Z" fill="#222222"/>
<path d="M61.6687 14.1355V11.6875H51.9127C47.5027 11.6875 45.9727 13.7935 45.9727 17.8435C45.9727 21.8935 47.5027 23.9995 51.9127 23.9995H61.6687V21.5335H51.9127C49.5007 21.5335 48.7807 20.6335 48.6007 18.9955H61.4527V16.6915H48.6007C48.7807 15.0535 49.5007 14.1355 51.9127 14.1355H61.6687Z" fill="#222222"/>
<path d="M71.4465 14.2975H71.4645C72.7065 14.2975 72.7965 14.4955 75.9465 18.6175C79.3125 23.0275 80.2305 23.9995 83.2725 23.9995H85.0905V11.6875H82.5165V21.3895H82.4985C81.1665 21.3895 80.9505 21.1015 78.0165 17.0515C74.9025 12.7495 74.0025 11.6875 70.6905 11.6875H68.8725V23.9995H71.4465V14.2975Z" fill="#222222"/>
<path d="M107.794 14.1355V11.6875H98.0377C93.6277 11.6875 92.0977 13.7935 92.0977 17.8435C92.0977 21.8935 93.6277 23.9995 98.0377 23.9995H107.794V21.5335H98.0377C95.6257 21.5335 94.9057 20.6335 94.7257 18.9955H107.578V16.6915H94.7257C94.9057 15.0535 95.6257 14.1355 98.0377 14.1355H107.794Z" fill="#222222"/>
<path d="M114.997 23.9995H117.571V19.9495H125.635C127.273 19.9495 127.651 20.8315 127.651 21.5155V23.9995H130.315V21.5695C130.315 20.2915 129.631 19.2835 128.065 18.7795C129.667 18.3115 130.585 17.2495 130.585 15.5215C130.585 13.0555 128.713 11.6875 125.689 11.6875H114.997V23.9995ZM117.571 17.6635V13.9555H125.887C127.471 13.9555 127.957 14.9995 127.957 15.8095C127.957 16.6195 127.471 17.6635 125.887 17.6635H117.571Z" fill="#222222"/>
<path d="M150.184 17.2855V21.4795H143.002C140.068 21.4795 139.708 20.2015 139.708 17.8255C139.708 15.4675 140.068 14.1895 143.002 14.1895H152.614V11.6875H143.002C138.592 11.6875 137.08 13.7935 137.08 17.8255C137.08 21.8755 138.592 23.9995 143.002 23.9995H152.758V17.2855H150.184Z" fill="#222222"/>
<path d="M158.557 11.6875L164.641 18.3295C165.019 18.7435 166.027 19.7155 166.027 20.4715V23.9995H168.601V20.4715C168.601 19.7335 169.591 18.7615 169.987 18.3295L176.071 11.6875H172.327L168.547 16.2415C168.151 16.7095 167.665 17.1775 167.305 17.8075C166.945 17.1775 166.459 16.7095 166.081 16.2415L162.301 11.6875H158.557Z" fill="#222222"/>
<g clip-path="url(#clip0)">
<path d="M33.16 7.17961L19.52 2.11961C18.54 1.75961 17.48 1.75961 16.5 2.11961L2.84 7.17961C1.14 7.81961 0 9.43961 0 11.2596V24.7596C0 26.5796 1.14 28.1996 2.84 28.8396L16.5 33.8996C17.48 34.2596 18.54 34.2596 19.52 33.8996L33.18 28.8396C34.88 28.1996 36.02 26.5796 36.02 24.7596V11.2596C36 9.43961 34.86 7.81961 33.16 7.17961Z" fill="white"/>
<path d="M23.8006 14.1191C23.4406 14.1191 23.1406 14.3991 23.1406 14.7791V18.0391C23.1406 18.3991 23.4406 18.6991 23.8006 18.6991C23.8006 18.6991 23.8006 18.6991 23.8206 18.6991L26.5606 18.6591C26.9206 18.6591 27.2006 18.3591 27.2006 17.9991V15.0591C27.2006 14.7191 26.9406 14.4391 26.6206 14.4191L23.8806 14.1391C23.8406 14.1191 23.8206 14.1191 23.8006 14.1191Z" fill="#222222"/>
<path d="M29.1016 15.5L30.6016 15.66V17.66L29.1016 17.7V15.5Z" fill="#222222"/>
<path d="M28.8787 14.5996C28.5187 14.5996 28.2188 14.8796 28.2188 15.2596V17.9196C28.2188 18.2796 28.5187 18.5796 28.8787 18.5796H28.8987L30.8387 18.5396C31.1987 18.5396 31.4787 18.2396 31.4787 17.8796V15.4596C31.4787 15.1196 31.2187 14.8396 30.8987 14.8196L28.9587 14.6196C28.9187 14.5996 28.8987 14.5996 28.8787 14.5996Z" fill="#222222"/>
<path fill-rule="evenodd" clip-rule="evenodd" d="M25.418 29.8596V24.4396C25.418 24.1196 25.658 23.8396 25.958 23.7996L29.198 23.2596C29.598 23.1996 29.958 23.4996 29.958 23.8996V28.4596L25.418 29.8596Z" fill="#222222"/>
<path d="M33.16 7.17961L19.52 2.11961C18.54 1.75961 17.48 1.75961 16.5 2.11961L2.84 7.17961C1.14 7.81961 0 9.43961 0 11.2596V24.7596C0 26.5796 1.14 28.1996 2.84 28.8396L16.5 33.8996C17.48 34.2596 18.54 34.2596 19.52 33.8996L33.18 28.8396C34.88 28.1996 36.02 26.5796 36.02 24.7596V11.2596C36 9.43961 34.86 7.81961 33.16 7.17961ZM12.48 20.7996L10.94 20.7596C10.72 20.7596 10.56 21.0196 10.62 21.2996L11.48 26.6796C11.56 27.2196 11.04 27.4196 10.86 26.9196L7.44 17.6396C7.34 17.3596 7.48 16.9996 7.7 16.9996L8.94 16.9596C9.14 16.9596 9.3 16.6796 9.24 16.3996L8.52 11.9796C8.48 11.6996 8.62 11.4196 8.82 11.3996L11.22 10.9596C11.38 10.9396 11.52 11.0796 11.56 11.2996L12.8 20.2596C12.88 20.5396 12.7 20.8196 12.48 20.7996ZM34.26 25.4396C34.26 26.3996 33.64 27.2396 32.72 27.5196L21.6 30.9196C20.2 31.3396 18.78 30.2996 18.78 28.8396V7.15961C18.78 5.67961 20.22 4.63961 21.64 5.09961L32.76 8.75961C33.66 9.05961 34.26 9.87961 34.26 10.8196V25.4396Z" fill="#222222"/>
<path d="M12.4791 20.7989L10.9391 20.7589C10.7191 20.7589 10.5591 21.0189 10.6191 21.2989L11.4791 26.6789C11.5591 27.2189 11.0391 27.4189 10.8591 26.9189L7.43912 17.6389C7.33912 17.3589 7.47912 16.9989 7.69912 16.9989L8.93912 16.9589C9.13912 16.9589 9.29912 16.6789 9.23912 16.3989L8.51912 11.9789C8.47912 11.6989 8.61912 11.4189 8.81912 11.3989L11.2191 10.9589C11.3791 10.9389 11.5191 11.0789 11.5591 11.2989L12.7991 20.2589C12.8791 20.5389 12.6991 20.8189 12.4791 20.7989Z" fill="#FFE000"/>
</g>
</g>
<defs>
<clipPath id="clip0">
<rect width="36" height="36" fill="white"/>
</clipPath>
</defs>
</svg>
